<?xml version="1.0" standalone="no"?><svg xmlns="http://www.w3.org/2000/svg" viewBox="0 0 1440 320"><path fill="#ecf0f1" fill-opacity="1" d="M0,192L30,202.7C60,213,120,235,180,229.3C240,224,300,192,360,197.3C420,203,480,245,540,234.7C600,224,660,160,720,149.3C780,139,840,181,900,197.3C960,213,1020,203,1080,181.3C1140,160,1200,128,1260,133.3C1320,139,1380,181,1410,202.7L1440,224L1440,320L1410,320C1380,320,1320,320,1260,320C1200,320,1140,320,1080,320C1020,320,960,320,900,320C840,320,780,320,720,320C660,320,600,320,540,320C480,320,420,320,360,320C300,320,240,320,180,320C120,320,60,320,30,320L0,320Z"></path></svg>